<svg xmlns="http://www.w3.org/2000/svg" xmlns:xlink="http://www.w3.org/1999/xlink" width="139" height="20">
  <defs>
    <linearGradient id="a" x1="-74.47" y1="153.92" x2="-75.02" y2="152.92"
      gradientTransform="matrix(16.79, 0, 0, -19.7, 1263.12, 3033.34)" gradientUnits="userSpaceOnUse">
      <stop offset="0" stop-color="#33d35e" />
      <stop offset="1" stop-color="#2ab6d9" />
    </linearGradient>
    <linearGradient id="b" x1="-74.47" y1="153.92" x2="-75.02" y2="152.92"
      gradientTransform="matrix(16.79, 0, 0, -19.7, 1270.49, 3033.34)" xlink:href="#a" />
    <linearGradient id="c" x1="-74.47" y1="153.92" x2="-75.02" y2="152.92"
      gradientTransform="matrix(16.79, 0, 0, -19.7, 1277.78, 3033.34)" xlink:href="#a" />
  </defs>
  <path d="M0,0" fill="none" />
  <path d="M10.8,0,0,19.7H6L16.79,0Z" fill-rule="evenodd" fill="url(#a)" />
  <path d="M18.17,0,7.37,19.7h6L24.16,0Z" fill-rule="evenodd" opacity="0.5" fill="url(#b)" style="isolation:isolate" />
  <path d="M25.54,0,14.74,19.7h6L31.52,0Z" fill-rule="evenodd" opacity="0.15" fill="url(#c)"
    style="isolation:isolate" />
  <path
    d="M37.71,11c.77-1.24,2-3,3.38-4.95H46.5l-4.1,4.86c.44,1,4,7.16,4.43,8.1H41.42c-.1-.34-2.29-4.83-2.36-5.07l-1.35,1.38V19H32.89V1.11h4.82Z"
    fill="#9698a6" />
  <path
    d="M47.89,9.42c0-1.12,0-2.33,0-3.36h4.71c.07.33.12,1,.15,1.43a4.15,4.15,0,0,1,3.68-1.74c2.59,0,4.23,1.75,4.23,4.92V19H55.81V11.23c0-1.25-.36-2-1.47-2s-1.63.53-1.63,2.35V19H47.89Z"
    fill="#9698a6" />
  <path d="M63.32,1.11h4.82V4.47H63.32Zm0,4.95h4.82V19H63.32Z" fill="#9698a6" />
  <path d="M74.87,6.06c.79,3.16,1.59,7,1.83,8.92h.11c.34-2.44,1.25-5.9,2-8.92h4.78L79.27,19H73.88l-4.18-13Z"
    fill="#9698a6" />
  <path
    d="M85.38.83h2.43V8.18a4.21,4.21,0,0,1,4-2c3.24,0,5.27,2.65,5.27,6.35s-2,6.83-5.58,6.83c-2.07,0-3.11-.76-3.74-1.92A16.11,16.11,0,0,1,87.69,19H85.35c0-1.43,0-2.82,0-4.22Zm9.23,11.71c0-2.54-1.17-4.37-3.38-4.37-2.58,0-3.54,1.73-3.54,4.6,0,2.56.9,4.53,3.45,4.53C93.38,17.3,94.61,15.42,94.61,12.54Z"
    fill="#f3f4f6" />
  <path
    d="M109.64,16.14A22.71,22.71,0,0,0,109.8,19h-2.32a7.64,7.64,0,0,1-.19-1.6c-.47.87-1.51,1.9-3.94,1.9-3,0-4.33-2-4.33-3.88,0-2.87,2.32-4.11,6-4.11h2.21v-1c0-1.1-.38-2.37-2.65-2.37-2,0-2.4,1-2.62,2H99.63c.17-1.79,1.29-3.82,5.05-3.81,3.34,0,5,1.41,5,4.19ZM107.27,13H105.2c-2.47,0-3.72.68-3.72,2.34a2.14,2.14,0,0,0,2.41,2.16c2.92,0,3.38-1.93,3.38-4.09Z"
    fill="#f3f4f6" />
  <path
    d="M113.34,9.61c0-1.08,0-2.2,0-3.17h2.36c0,.37.09,1.59.09,2a4,4,0,0,1,4-2.32c2.47,0,4.29,1.53,4.29,4.86v8h-2.43v-7.7c0-1.84-.71-3.12-2.61-3.12-2.26,0-3.23,1.67-3.23,4.19V19h-2.43Z"
    fill="#f3f4f6" />
  <path
    d="M130.09,12.33c1.08-1.24,3.77-4,5.51-5.89h2.88l-4.81,4.88L139,19h-2.85L132,12.85l-1.91,1.79V19h-2.42V.83h2.42Z"
    fill="#f3f4f6" />
</svg>